<svg width="14" height="8" viewBox="0 0 14 8" fill="none" xmlns="http://www.w3.org/2000/svg">
<path fill-rule="evenodd" clip-rule="evenodd" d="M7.70637 7.70734C7.51884 7.89481 7.26453 8.00013 6.99937 8.00013C6.7342 8.00013 6.47989 7.89481 6.29237 7.70734L0.635367 2.05034C0.539856 1.9581 0.463674 1.84775 0.411265 1.72575C0.358856 1.60374 0.33127 1.47252 0.330116 1.33974C0.328962 1.20696 0.354264 1.07529 0.404545 0.952389C0.454826 0.829493 0.529079 0.71784 0.622972 0.623948C0.716864 0.530055 0.828516 0.455802 0.951412 0.405521C1.07431 0.35524 1.20599 0.329939 1.33877 0.331092C1.47155 0.332246 1.60277 0.359833 1.72477 0.412242C1.84677 0.464651 1.95712 0.540832 2.04937 0.636343L6.99937 5.58634L11.9494 0.636343C12.138 0.454185 12.3906 0.35339 12.6528 0.355669C12.915 0.357947 13.1658 0.463116 13.3512 0.648524C13.5366 0.833932 13.6418 1.08474 13.644 1.34694C13.6463 1.60914 13.5455 1.86174 13.3634 2.05034L7.70637 7.70734Z" fill="#959595"/>
</svg>
