<svg width="21" height="22" viewBox="0 0 21 22" fill="none" xmlns="http://www.w3.org/2000/svg">
<path d="M17.675 7.625H13.575C13.4645 7.625 13.375 7.71454 13.375 7.825V10.425C13.375 10.5355 13.4645 10.625 13.575 10.625H17.675C17.7855 10.625 17.875 10.5355 17.875 10.425V7.825C17.875 7.71454 17.7855 7.625 17.675 7.625Z" fill="#959595"/>
<path d="M17.125 0.5H16.375C16.1679 0.5 16 0.667893 16 0.875V2.375C16 2.58211 16.1679 2.75 16.375 2.75H17.125C17.3321 2.75 17.5 2.58211 17.5 2.375V0.875C17.5 0.667893 17.3321 0.5 17.125 0.5Z" fill="#959595"/>
<path d="M0.625 19.8C0.625 19.9105 0.714543 20 0.825 20H11.3141C11.476 20 11.5726 19.8163 11.4898 19.6771C11.3613 19.4612 11.2488 19.236 11.1532 19.0033C11.1216 18.9265 11.0476 18.875 10.9645 18.875H1.75C1.65054 18.875 1.55516 18.8355 1.48484 18.7652C1.41451 18.6948 1.375 18.5995 1.375 18.5V7.25C1.375 7.15054 1.41451 7.05516 1.48484 6.98483C1.55516 6.91451 1.65054 6.875 1.75 6.875H18.25C18.3495 6.875 18.4448 6.91451 18.5152 6.98483C18.5855 7.05516 18.625 7.15054 18.625 7.25V12.3433C18.625 12.4147 18.6633 12.4805 18.7243 12.5176C18.8305 12.582 18.9344 12.6502 19.0357 12.722C19.1743 12.8202 19.375 12.7249 19.375 12.5551V5.95C19.375 5.83954 19.2855 5.75 19.175 5.75H0.825001C0.714544 5.75 0.625 5.83954 0.625 5.95V19.8Z" fill="#959595"/>
<path d="M13.375 12.1103C13.375 12.2647 13.5433 12.362 13.6815 12.2933C14.2753 11.998 14.9211 11.8187 15.5843 11.7662C16.2662 11.7122 16.951 11.7935 17.5997 12.0044C17.7335 12.0479 17.875 11.9509 17.875 11.8102V11.575C17.875 11.4645 17.7855 11.375 17.675 11.375H13.575C13.4645 11.375 13.375 11.4645 13.375 11.575V12.1103ZM16 12.5C15.11 12.5 14.24 12.7639 13.4999 13.2584C12.7599 13.7529 12.1831 14.4557 11.8425 15.2779C11.5019 16.1002 11.4128 17.005 11.5865 17.8779C11.7601 18.7508 12.1887 19.5526 12.818 20.182C13.4474 20.8113 14.2492 21.2399 15.1221 21.4135C15.995 21.5872 16.8998 21.4981 17.7221 21.1575C18.5443 20.8169 19.2471 20.2401 19.7416 19.5001C20.2361 18.76 20.5 17.89 20.5 17C20.499 15.8068 20.0246 14.6628 19.1809 13.8191C18.3372 12.9754 17.1932 12.501 16 12.5ZM15.1401 19.5151C15.0698 19.5854 14.9744 19.6249 14.875 19.6249C14.7756 19.6249 14.6802 19.5854 14.6099 19.5151L12.8763 17.7815C12.7982 17.7034 12.7982 17.5768 12.8763 17.4987L13.1237 17.2513C13.2018 17.1732 13.3284 17.1732 13.4065 17.2513L14.7336 18.5783C14.8117 18.6564 14.9383 18.6564 15.0164 18.5783L18.5935 15.0013C18.6716 14.9232 18.7982 14.9232 18.8763 15.0013L19.1237 15.2487C19.2018 15.3268 19.2018 15.4534 19.1237 15.5315L15.1401 19.5151Z" fill="#959595"/>
<path d="M3.625 0.5H2.875C2.66789 0.5 2.5 0.667893 2.5 0.875V2.375C2.5 2.58211 2.66789 2.75 2.875 2.75H3.625C3.83211 2.75 4 2.58211 4 2.375V0.875C4 0.667893 3.83211 0.5 3.625 0.5Z" fill="#959595"/>
<path d="M1.76816 2.57332C1.74846 2.46487 1.66082 2.375 1.5506 2.375H0.825C0.714543 2.375 0.625 2.46454 0.625 2.575V4.8C0.625 4.91046 0.714543 5 0.825 5H19.175C19.2855 5 19.375 4.91046 19.375 4.8V2.575C19.375 2.46454 19.2855 2.375 19.175 2.375H18.4494C18.3392 2.375 18.2515 2.46487 18.2318 2.57332C18.1911 2.79766 18.0829 3.00608 17.9195 3.16951C17.7087 3.3803 17.4231 3.49911 17.125 3.5H16.375C16.0769 3.49911 15.7913 3.3803 15.5805 3.16951C15.4171 3.00608 15.3089 2.79766 15.2682 2.57332C15.2485 2.46487 15.1608 2.375 15.0506 2.375H4.9494C4.83918 2.375 4.75154 2.46487 4.73184 2.57332C4.69108 2.79766 4.58294 3.00608 4.41951 3.16951C4.20873 3.3803 3.92309 3.49911 3.625 3.5H2.875C2.57691 3.49911 2.29127 3.3803 2.08049 3.16951C1.91706 3.00608 1.80892 2.79766 1.76816 2.57332Z" fill="#959595"/>
<path d="M6.425 15.5H2.325C2.21454 15.5 2.125 15.5895 2.125 15.7V17.925C2.125 18.0355 2.21454 18.125 2.325 18.125H6.425C6.53546 18.125 6.625 18.0355 6.625 17.925V15.7C6.625 15.5895 6.53546 15.5 6.425 15.5Z" fill="#959595"/>
<path d="M7.575 15.5C7.46454 15.5 7.375 15.5895 7.375 15.7V17.925C7.375 18.0355 7.46454 18.125 7.575 18.125H10.625C10.7528 18.125 10.8476 18.0068 10.826 17.8809C10.7762 17.59 10.7508 17.2954 10.75 17C10.7503 16.5816 10.8009 16.1652 10.9004 15.7595C10.9324 15.6293 10.8363 15.5 10.7022 15.5H7.575Z" fill="#959595"/>
<path d="M6.425 11.375H2.325C2.21454 11.375 2.125 11.4645 2.125 11.575V14.55C2.125 14.6605 2.21454 14.75 2.325 14.75H6.425C6.53546 14.75 6.625 14.6605 6.625 14.55V11.575C6.625 11.4645 6.53546 11.375 6.425 11.375Z" fill="#959595"/>
<path d="M6.425 7.625H2.325C2.21454 7.625 2.125 7.71454 2.125 7.825V10.425C2.125 10.5355 2.21454 10.625 2.325 10.625H6.425C6.53546 10.625 6.625 10.5355 6.625 10.425V7.825C6.625 7.71454 6.53546 7.625 6.425 7.625Z" fill="#959595"/>
<path d="M12.5546 13.0443C12.5989 13.0055 12.625 12.9498 12.625 12.8909V11.575C12.625 11.4645 12.5355 11.375 12.425 11.375H7.575C7.46454 11.375 7.375 11.4645 7.375 11.575V14.55C7.375 14.6605 7.46454 14.75 7.575 14.75H11.1374C11.2146 14.75 11.2846 14.7054 11.3194 14.6366C11.6251 14.0316 12.0444 13.4909 12.5546 13.0443Z" fill="#959595"/>
<path d="M12.425 7.625H7.575C7.46454 7.625 7.375 7.71454 7.375 7.825V10.425C7.375 10.5355 7.46454 10.625 7.575 10.625H12.425C12.5355 10.625 12.625 10.5355 12.625 10.425V7.825C12.625 7.71454 12.5355 7.625 12.425 7.625Z" fill="#959595"/>
</svg>
