<svg width="24" height="24" viewBox="0 0 24 24" fill="none" xmlns="http://www.w3.org/2000/svg">
<path d="M14.5559 15.548L14.1009 16.028C14.1009 16.028 13.0179 17.167 10.0629 14.056C7.10786 10.945 8.19086 9.80605 8.19086 9.80605L8.47786 9.50305C9.18386 8.75905 9.25086 7.56505 8.63386 6.69305L7.37386 4.91005C6.60986 3.83005 5.13486 3.68805 4.25986 4.60905L2.69086 6.26005C2.25786 6.71705 1.96786 7.30805 2.00286 7.96505C2.09286 9.64505 2.81086 13.258 6.81486 17.475C11.0619 21.945 15.0469 22.123 16.6759 21.962C17.1919 21.912 17.6399 21.633 18.0009 21.253L19.4209 19.757C20.3809 18.747 20.1109 17.017 18.8829 16.311L16.9729 15.211C16.1669 14.748 15.1859 14.884 14.5559 15.547" fill="#959595"/>
<path fill-rule="evenodd" clip-rule="evenodd" d="M12.586 3.586C12 4.1715 12 5.1145 12 7C12 8.8855 12 9.8285 12.586 10.414C13.1715 11 14.1145 11 16 11H18C19.8855 11 20.8285 11 21.414 10.414C22 9.8285 22 8.8855 22 7C22 5.1145 22 4.1715 21.414 3.586C20.8285 3 19.8855 3 18 3H16C14.1145 3 13.1715 3 12.586 3.586ZM20.288 4.76C20.3516 4.83639 20.3823 4.93493 20.3733 5.03394C20.3643 5.13295 20.3164 5.22433 20.24 5.288L19.142 6.203C18.6985 6.573 18.3395 6.872 18.022 7.076C17.692 7.2885 17.3705 7.4225 17 7.4225C16.6295 7.4225 16.308 7.288 15.9775 7.076C15.6605 6.872 15.3015 6.5725 14.858 6.2035L13.76 5.2885C13.6836 5.22485 13.6355 5.13343 13.6265 5.03437C13.6174 4.9353 13.6481 4.8367 13.7118 4.76025C13.7754 4.6838 13.8668 4.63577 13.9659 4.62672C14.0649 4.61767 14.1636 4.64835 14.24 4.712L15.32 5.6115C15.7865 6 16.11 6.269 16.384 6.445C16.6485 6.615 16.828 6.6725 17.0005 6.6725C17.173 6.6725 17.3525 6.6155 17.617 6.445C17.8905 6.269 18.2145 6 18.681 5.6115L19.7605 4.7115C19.837 4.64793 19.9355 4.61733 20.0345 4.62643C20.1336 4.63552 20.2244 4.68357 20.288 4.76Z" fill="#959595"/>
</svg>
