<svg width="48" height="48" viewBox="0 0 48 48" fill="none" xmlns="http://www.w3.org/2000/svg">
<path d="M24 3C12.3 3 3 12.3 3 24C3 35.7 12.3 45 24 45C35.7 45 45 35.7 45 24C45 12.3 35.7 3 24 3ZM24 42C14.1 42 6 33.9 6 24C6 14.1 14.1 6 24 6C33.9 6 42 14.1 42 24C42 33.9 33.9 42 24 42Z" fill="#F25757"/>
<path d="M32.4536 34.1464C32.2583 34.3417 31.9417 34.3417 31.7464 34.1464L24.3536 26.7536C24.1583 26.5583 23.8417 26.5583 23.6464 26.7536L16.2536 34.1464C16.0583 34.3417 15.7417 34.3417 15.5464 34.1464L13.8536 32.4536C13.6583 32.2583 13.6583 31.9417 13.8536 31.7464L21.2464 24.3536C21.4417 24.1583 21.4417 23.8417 21.2464 23.6464L13.8536 16.2536C13.6583 16.0583 13.6583 15.7417 13.8536 15.5464L15.5464 13.8536C15.7417 13.6583 16.0583 13.6583 16.2536 13.8536L23.6464 21.2464C23.8417 21.4417 24.1583 21.4417 24.3536 21.2464L31.7464 13.8536C31.9417 13.6583 32.2583 13.6583 32.4536 13.8536L34.1464 15.5464C34.3417 15.7417 34.3417 16.0583 34.1464 16.2536L26.7536 23.6464C26.5583 23.8417 26.5583 24.1583 26.7536 24.3536L34.1464 31.7464C34.3417 31.9417 34.3417 32.2583 34.1464 32.4536L32.4536 34.1464Z" fill="#F25757"/>
</svg>
