<svg width="20" height="20" viewBox="0 0 20 20" fill="none" xmlns="http://www.w3.org/2000/svg">
<path d="M1.12522e-05 10.0002C0.000512807 7.80776 0.721494 5.67627 2.052 3.93375C3.3825 2.19123 5.24878 0.934236 7.36361 0.356232C9.47845 -0.221772 11.7246 -0.0887551 13.7565 0.734811C15.7883 1.55838 17.4932 3.02685 18.6087 4.91422C19.7243 6.8016 20.1886 9.00328 19.9304 11.1804C19.6721 13.3576 18.7056 15.3895 17.1794 16.9635C15.6533 18.5375 13.6521 19.5664 11.484 19.8917C9.3159 20.2171 7.10093 19.8209 5.18001 18.7642L1.29201 19.9482C1.11859 20.001 0.934076 20.0057 0.758197 19.9617C0.582319 19.9178 0.421695 19.8269 0.293506 19.6987C0.165318 19.5705 0.0743872 19.4098 0.0304406 19.234C-0.0135059 19.0581 -0.00881522 18.8736 0.0440112 18.7002L1.22801 14.8062C0.41992 13.3334 -0.00251363 11.6801 1.12522e-05 10.0002ZM6.00001 9.00016C6.00001 9.26537 6.10537 9.51973 6.2929 9.70726C6.48044 9.8948 6.7348 10.0002 7.00001 10.0002H13C13.2652 10.0002 13.5196 9.8948 13.7071 9.70726C13.8947 9.51973 14 9.26537 14 9.00016C14 8.73494 13.8947 8.48059 13.7071 8.29305C13.5196 8.10551 13.2652 8.00016 13 8.00016H7.00001C6.7348 8.00016 6.48044 8.10551 6.2929 8.29305C6.10537 8.48059 6.00001 8.73494 6.00001 9.00016ZM7.00001 12.0002C6.7348 12.0002 6.48044 12.1055 6.2929 12.293C6.10537 12.4806 6.00001 12.7349 6.00001 13.0002C6.00001 13.2654 6.10537 13.5197 6.2929 13.7073C6.48044 13.8948 6.7348 14.0002 7.00001 14.0002H11C11.2652 14.0002 11.5196 13.8948 11.7071 13.7073C11.8947 13.5197 12 13.2654 12 13.0002C12 12.7349 11.8947 12.4806 11.7071 12.293C11.5196 12.1055 11.2652 12.0002 11 12.0002H7.00001Z" fill="#959595"/>
</svg>
