<svg width="40" height="40" viewBox="0 0 40 40" fill="none" xmlns="http://www.w3.org/2000/svg">
<path d="M20.0008 37.0753C29.3258 37.0753 37.0765 29.341 37.0765 19.9995C37.0765 10.6745 29.3086 2.92383 19.9836 2.92383C10.6429 2.92383 2.92578 10.6745 2.92578 19.9995C2.92578 29.341 10.6594 37.0753 20.0008 37.0753ZM15.4644 28.5874C14.7444 28.5874 14.2086 27.9681 14.3594 27.2653L15.0629 23.7831H13.4894C12.9036 23.7831 12.4851 23.3474 12.4851 22.7617C12.4851 22.076 12.9872 21.5731 13.6565 21.5731H15.5315L16.2851 18.0074H14.7436C14.1579 18.0074 13.7222 17.5717 13.7222 16.9695C13.7222 16.2995 14.2415 15.781 14.8944 15.781H16.7529L17.5229 12.181C17.6401 11.5117 18.0758 11.1767 18.7786 11.1767C19.5151 11.1767 20.0172 11.7967 19.8665 12.4995L19.1972 15.781H22.4615L23.2151 12.181C23.3486 11.5117 23.8008 11.1767 24.4872 11.1767C25.2072 11.1767 25.7265 11.7795 25.5922 12.4995L24.9229 15.781H26.4801C27.0486 15.781 27.4672 16.2167 27.4672 16.8188C27.4672 17.5045 26.9815 18.0074 26.2958 18.0074H24.4536L23.6836 21.5731H25.2236C25.8094 21.5731 26.2286 22.0088 26.2286 22.5945C26.2286 23.2803 25.7265 23.7831 25.0565 23.7831H23.2315L22.4279 27.5667C22.2944 28.236 21.8422 28.5881 21.1222 28.5881C20.4194 28.5881 19.9172 27.9681 20.0508 27.2653L20.7708 23.7995H17.5065L16.7029 27.5667C16.5858 28.236 16.1501 28.5881 15.4636 28.5881M17.8244 21.7745H21.3565L22.1772 17.841H18.6436L17.8244 21.7745Z" fill="#41ACF9"/>
</svg>
