<svg width="24" height="26" viewBox="0 0 24 26" fill="none" xmlns="http://www.w3.org/2000/svg">
<path d="M12.0008 0.200195C10.3034 0.200195 8.67553 0.874479 7.4753 2.07471C6.27506 3.27494 5.60078 4.90281 5.60078 6.6002C5.60078 8.29758 6.27506 9.92545 7.4753 11.1257C8.67553 12.3259 10.3034 13.0002 12.0008 13.0002C13.6982 13.0002 15.326 12.3259 16.5263 11.1257C17.7265 9.92545 18.4008 8.29758 18.4008 6.6002C18.4008 4.90281 17.7265 3.27494 16.5263 2.07471C15.326 0.874479 13.6982 0.200195 12.0008 0.200195ZM4.01518 14.6002C3.5938 14.5985 3.17623 14.68 2.78642 14.8401C2.39661 15.0001 2.04223 15.2355 1.7436 15.5328C1.44496 15.8301 1.20796 16.1834 1.04617 16.5725C0.884378 16.9616 0.800988 17.3788 0.800781 17.8002C0.800781 20.5058 2.13358 22.5458 4.21678 23.8754C6.26798 25.1826 9.03278 25.8002 12.0008 25.8002C14.9688 25.8002 17.7336 25.1826 19.7848 23.8754C21.868 22.5474 23.2008 20.5042 23.2008 17.8002C23.2008 16.9515 22.8636 16.1376 22.2635 15.5375C21.6634 14.9373 20.8495 14.6002 20.0008 14.6002H4.01518Z" fill="#1985D2"/>
</svg>
