<svg width="40" height="40" viewBox="0 0 40 40" fill="none" xmlns="http://www.w3.org/2000/svg">
<path fill-rule="evenodd" clip-rule="evenodd" d="M26.8341 22.2646L27.5941 21.5096C28.6441 20.4663 30.2791 20.2513 31.6224 20.9813L34.8058 22.713C36.8508 23.8246 37.3024 26.5496 35.7041 28.138L33.3374 30.4913C32.7341 31.0913 31.9874 31.528 31.1274 31.608C29.1408 31.793 25.0524 31.693 20.2291 28.8696L26.8341 22.2646ZM16.9841 12.4713L17.4624 11.9946C18.6408 10.8246 18.7524 8.94464 17.7241 7.57131L15.6241 4.76631C14.3508 3.06631 11.8924 2.84131 10.4341 4.29131L7.81744 6.89131C7.09578 7.61131 6.61244 8.54131 6.67078 9.57464C6.77911 11.4746 7.42578 14.9413 10.2524 19.2013L16.9841 12.4713Z" fill="#41ACF9"/>
<path opacity="0.6" d="M20.1053 19.1614C15.1953 14.2797 16.972 12.4814 16.9836 12.4697L10.252 19.2031C11.3636 20.8764 12.8103 22.6714 14.692 24.5431C16.592 26.4331 18.4586 27.8347 20.2286 28.8697L26.8336 22.2664C26.8336 22.2664 25.0303 24.0597 20.1053 19.1631" fill="#41ACF9"/>
</svg>
