<svg width="40" height="40" viewBox="0 0 40 40" fill="none" xmlns="http://www.w3.org/2000/svg">
<path d="M20.5 5.00068C17.7461 4.96797 15.0929 6.10819 13.1238 8.17057C11.1548 10.233 10.0311 13.0486 10 15.9983C10 21.8074 19.3549 34.0965 19.7557 34.6261C19.8465 34.7431 19.9603 34.8373 20.089 34.9019C20.2176 34.9665 20.3579 35 20.5 35C20.6421 35 20.7824 34.9665 20.911 34.9019C21.0397 34.8373 21.1534 34.7431 21.2443 34.6261C21.6451 34.0965 31 21.8037 31 15.9983C30.9689 13.0486 29.8452 10.233 27.8762 8.17057C25.9071 6.10819 23.2539 4.96797 20.5 5.00068ZM20.5 18.9995C19.7648 18.9823 19.0507 18.733 18.4472 18.283C17.8437 17.833 17.3777 17.2022 17.1075 16.4696C16.8373 15.7371 16.7749 14.9354 16.9283 14.1651C17.0816 13.3948 17.4438 12.6901 17.9695 12.1393C18.4952 11.5885 19.161 11.2162 19.8833 11.069C20.6057 10.9218 21.3526 11.0062 22.0304 11.3117C22.7082 11.6172 23.2867 12.1302 23.6935 12.7864C24.1002 13.4425 24.3171 14.2127 24.3169 15.0003C24.3055 16.0727 23.897 17.0963 23.1813 17.8462C22.4656 18.596 21.5011 19.0109 20.5 18.9995Z" fill="#41ACF9"/>
</svg>
