<svg width="81" height="80" viewBox="0 0 81 80" fill="none" xmlns="http://www.w3.org/2000/svg">
<path d="M40.5 49.9993V6.66602M40.5 6.66602L50.5 18.3327M40.5 6.66602L30.5 18.3327" stroke="#1985D2" stroke-width="4" stroke-linecap="round" stroke-linejoin="round"/>
<path d="M27.166 73.3325H53.8327C63.2593 73.3325 67.976 73.3325 70.9027 70.4059C73.8327 67.4725 73.8327 62.7625 73.8327 53.3325V49.9992C73.8327 40.5725 73.8327 35.8592 70.9027 32.9292C68.3427 30.3692 64.416 30.0459 57.166 30.0059M23.8327 30.0059C16.5827 30.0459 12.656 30.3692 10.096 32.9292C7.16602 35.8592 7.16602 40.5725 7.16602 49.9992V53.3325C7.16602 62.7625 7.16602 67.4759 10.096 70.4059C11.096 71.4059 12.3027 72.0625 13.8327 72.4959" stroke="#1985D2" stroke-width="4" stroke-linecap="round"/>
</svg>
