<svg width="18" height="22" viewBox="0 0 18 22" fill="none" xmlns="http://www.w3.org/2000/svg">
<path fill-rule="evenodd" clip-rule="evenodd" d="M5.56081 11.375H6.30256C6.65396 11.375 7.00147 11.3013 7.32263 11.1587C7.64379 11.0161 7.93146 10.8077 8.16706 10.547L10.6488 7.80496C10.8365 7.5973 11.0834 7.45212 11.3561 7.38897C11.6289 7.32581 11.9144 7.34771 12.1743 7.45171C12.5174 7.58877 12.7948 7.85355 12.9467 8.19037C13.0986 8.52719 13.114 8.9098 12.9896 9.25771L11.9958 12.041L15.2013 11.0592C15.52 10.9618 15.8588 10.9511 16.183 11.0281C16.5072 11.1051 16.805 11.2671 17.0458 11.4974C17.2866 11.7277 17.4618 12.0179 17.5532 12.3384C17.6447 12.6588 17.6491 12.9978 17.5661 13.3205L16.2063 18.593C16.0194 19.3177 15.5968 19.9597 15.0052 20.418C14.4135 20.8764 13.6862 21.1251 12.9378 21.125H12.1278C10.7479 21.1249 9.39327 20.7545 8.20531 20.0525C7.73222 19.7727 7.19269 19.625 6.64306 19.625H5.56081C5.48298 19.8441 5.3393 20.0338 5.14944 20.1681C4.95958 20.3023 4.73285 20.3746 4.50031 20.375H1.50331C1.35554 20.3751 1.20921 20.346 1.07267 20.2895C0.936135 20.233 0.812077 20.1502 0.707592 20.0457C0.603106 19.9412 0.520243 19.8171 0.463741 19.6806C0.40724 19.5441 0.378208 19.3977 0.378307 19.25V11.75C0.378307 11.4516 0.496833 11.1654 0.707812 10.9545C0.91879 10.7435 1.20494 10.625 1.50331 10.625H4.50031C4.73285 10.6253 4.95958 10.6976 5.14944 10.8319C5.3393 10.9661 5.48298 11.1558 5.56081 11.375ZM1.12831 18.125V19.25C1.12831 19.3494 1.16782 19.4448 1.23814 19.5151C1.30847 19.5855 1.40385 19.625 1.50331 19.625H4.50031C4.60006 19.625 4.69531 19.5852 4.76581 19.5155C4.83581 19.4448 4.87516 19.3494 4.87531 19.25V11.75C4.87516 11.6505 4.83581 11.5551 4.76581 11.4845C4.69516 11.4145 4.59977 11.3751 4.50031 11.375H1.50331C1.40391 11.3752 1.30864 11.4147 1.23836 11.485C1.16808 11.5553 1.12851 11.6506 1.12831 11.75V17.375H1.93906C2.02752 17.1248 2.20158 16.9139 2.43049 16.7796C2.65939 16.6453 2.9284 16.5963 3.18996 16.6412C3.45152 16.686 3.68879 16.8219 3.85985 17.0248C4.0309 17.2277 4.12472 17.4846 4.12472 17.75C4.12472 18.0153 4.0309 18.2722 3.85985 18.4751C3.68879 18.678 3.45152 18.8139 3.18996 18.8588C2.9284 18.9036 2.65939 18.8546 2.43049 18.7203C2.20158 18.586 2.02752 18.3752 1.93906 18.125H1.12831ZM7.95406 2.27821L8.50156 1.18321C8.54777 1.09048 8.61893 1.01246 8.70703 0.957931C8.79513 0.9034 8.89669 0.874512 9.00031 0.874512C9.10392 0.874512 9.20548 0.9034 9.29358 0.957931C9.38169 1.01246 9.45284 1.09048 9.49906 1.18321L10.0466 2.27821L11.2571 2.46046C11.3594 2.47601 11.4554 2.51971 11.5343 2.58668C11.6132 2.65366 11.672 2.74127 11.704 2.83971C11.7359 2.93816 11.7399 3.04356 11.7154 3.14414C11.6909 3.24471 11.639 3.33649 11.5653 3.40921L10.6931 4.26796L10.8941 5.47546C10.9106 5.57753 10.8986 5.6822 10.8592 5.77781C10.8198 5.87343 10.7547 5.95624 10.671 6.01703C10.5874 6.07782 10.4885 6.11421 10.3854 6.12214C10.2823 6.13008 10.179 6.10924 10.0871 6.06196L9.00031 5.49796L7.91356 6.06196C7.82159 6.10924 7.71831 6.13008 7.61521 6.12214C7.51211 6.11421 7.41324 6.07782 7.32959 6.01703C7.24594 5.95624 7.1808 5.87343 7.14143 5.77781C7.10205 5.6822 7.08998 5.57753 7.10656 5.47546L7.30756 4.26796L6.43531 3.40921C6.36109 3.33673 6.30861 3.24493 6.2838 3.1442C6.25899 3.04347 6.26282 2.93781 6.29488 2.83914C6.32694 2.74047 6.38594 2.65273 6.46522 2.58582C6.5445 2.51891 6.64091 2.47549 6.74356 2.46046L7.95406 2.27821ZM13.8476 2.27821L14.3951 1.18321C14.4413 1.09048 14.5124 1.01246 14.6005 0.957931C14.6886 0.9034 14.7902 0.874512 14.8938 0.874512C14.9974 0.874512 15.099 0.9034 15.1871 0.957931C15.2752 1.01246 15.3463 1.09048 15.3926 1.18321L15.9401 2.27821L17.1506 2.46046C17.2529 2.47601 17.3489 2.51971 17.4278 2.58668C17.5067 2.65366 17.5655 2.74127 17.5975 2.83971C17.6294 2.93816 17.6334 3.04356 17.6089 3.14414C17.5844 3.24471 17.5325 3.33649 17.4588 3.40921L16.5866 4.26796L16.7876 5.47546C16.8041 5.57753 16.7921 5.6822 16.7527 5.77781C16.7133 5.87343 16.6482 5.95624 16.5645 6.01703C16.4809 6.07782 16.382 6.11421 16.2789 6.12214C16.1758 6.13008 16.0725 6.10924 15.9806 6.06196L14.8938 5.49796L13.8078 6.06196C13.7159 6.11005 13.6123 6.13151 13.5089 6.12394C13.4054 6.11637 13.3061 6.08006 13.2221 6.0191C13.1382 5.95814 13.0729 5.87495 13.0337 5.77891C12.9944 5.68286 12.9828 5.57777 13.0001 5.47546L13.2011 4.26796L12.3288 3.40921C12.2546 3.33673 12.2021 3.24493 12.1773 3.1442C12.1525 3.04347 12.1563 2.93781 12.1884 2.83914C12.2204 2.74047 12.2794 2.65273 12.3587 2.58582C12.438 2.51891 12.5344 2.47549 12.6371 2.46046L13.8476 2.27821ZM2.06056 2.27821L2.60806 1.18321C2.65427 1.09048 2.72543 1.01246 2.81353 0.957931C2.90163 0.9034 3.00319 0.874512 3.10681 0.874512C3.21042 0.874512 3.31198 0.9034 3.40009 0.957931C3.48819 1.01246 3.55934 1.09048 3.60556 1.18321L4.15306 2.27821L5.36356 2.46046C5.46589 2.47601 5.56189 2.51971 5.64081 2.58668C5.71974 2.65366 5.77848 2.74127 5.81046 2.83971C5.84245 2.93816 5.84642 3.04356 5.82193 3.14414C5.79745 3.24471 5.74547 3.33649 5.67181 3.40921L4.79956 4.26796L5.00056 5.47546C5.01723 5.57763 5.00519 5.68242 4.96579 5.77815C4.92638 5.87388 4.86116 5.95677 4.77739 6.0176C4.69363 6.07842 4.59461 6.11478 4.49139 6.12261C4.38816 6.13044 4.28479 6.10945 4.19281 6.06196L3.10681 5.49796L2.02006 6.06196C1.92809 6.10924 1.82481 6.13008 1.72171 6.12214C1.61861 6.11421 1.51974 6.07782 1.43609 6.01703C1.35244 5.95624 1.2873 5.87343 1.24793 5.77781C1.20855 5.6822 1.19648 5.57753 1.21306 5.47546L1.41406 4.26796L0.541807 3.40921C0.46787 3.33661 0.415643 3.24482 0.390994 3.14417C0.366345 3.04352 0.37025 2.93798 0.402271 2.83943C0.434292 2.74087 0.493159 2.6532 0.572261 2.58625C0.651362 2.51931 0.747563 2.47575 0.850057 2.46046L2.06056 2.27821Z" fill="#959595"/>
</svg>
