<svg width="18" height="20" viewBox="0 0 18 20" fill="none" xmlns="http://www.w3.org/2000/svg">
<path d="M3.75 0.25C2.75544 0.25 1.80161 0.678012 1.09835 1.43988C0.395088 2.20175 0 3.23506 0 4.3125V15.6875C0 16.7649 0.395088 17.7983 1.09835 18.5601C1.80161 19.322 2.75544 19.75 3.75 19.75H14.25C15.2446 19.75 16.1984 19.322 16.9016 18.5601C17.6049 17.7983 18 16.7649 18 15.6875V4.3125C18 3.23506 17.6049 2.20175 16.9016 1.43988C16.1984 0.678012 15.2446 0.25 14.25 0.25H3.75ZM5.25 5.125H12.75C12.9489 5.125 13.1397 5.2106 13.2803 5.36298C13.421 5.51535 13.5 5.72201 13.5 5.9375C13.5 6.15299 13.421 6.35965 13.2803 6.51202C13.1397 6.6644 12.9489 6.75 12.75 6.75H5.25C5.05109 6.75 4.86032 6.6644 4.71967 6.51202C4.57902 6.35965 4.5 6.15299 4.5 5.9375C4.5 5.72201 4.57902 5.51535 4.71967 5.36298C4.86032 5.2106 5.05109 5.125 5.25 5.125ZM5.25 9.1875H9.75C9.94891 9.1875 10.1397 9.2731 10.2803 9.42548C10.421 9.57785 10.5 9.78451 10.5 10C10.5 10.2155 10.421 10.4222 10.2803 10.5745C10.1397 10.7269 9.94891 10.8125 9.75 10.8125H5.25C5.05109 10.8125 4.86032 10.7269 4.71967 10.5745C4.57902 10.4222 4.5 10.2155 4.5 10C4.5 9.78451 4.57902 9.57785 4.71967 9.42548C4.86032 9.2731 5.05109 9.1875 5.25 9.1875ZM5.25 13.25H12.75C12.9489 13.25 13.1397 13.3356 13.2803 13.488C13.421 13.6403 13.5 13.847 13.5 14.0625C13.5 14.278 13.421 14.4847 13.2803 14.637C13.1397 14.7894 12.9489 14.875 12.75 14.875H5.25C5.05109 14.875 4.86032 14.7894 4.71967 14.637C4.57902 14.4847 4.5 14.278 4.5 14.0625C4.5 13.847 4.57902 13.6403 4.71967 13.488C4.86032 13.3356 5.05109 13.25 5.25 13.25Z" fill="#959595"/>
</svg>
