<svg width="30" height="28" viewBox="0 0 30 28" fill="none" xmlns="http://www.w3.org/2000/svg">
<path d="M19.7997 9.6875C20.7997 10.025 22.4747 8.2375 23.4747 7.0625C24.4747 5.9 24.4372 5.225 24.1497 4.7875C23.8622 4.35 23.7122 4.7875 23.7122 4.7875C23.7122 4.7875 24.0747 2.775 23.1247 1.55C21.5622 -0.5 18.2872 -0.425 17.0622 1.475C15.8372 3.3875 16.4622 4.7625 16.4622 4.7625C16.4622 4.7625 15.9872 3.975 15.7497 4.7625C15.5247 5.55 15.8997 5.85 16.7497 6.85C17.5497 7.825 18.8122 9.325 19.7997 9.6875Z" fill="#1985D2"/>
<path d="M6.20051 22.0124C5.30051 21.2124 4.47551 20.4749 4.28801 20.3124C3.70051 19.7749 2.98801 19.8874 2.56301 20.2374C2.23801 20.4874 1.01301 21.4499 0.675506 21.6749C0.363006 21.8874 0.275506 22.1749 0.250506 22.3499C0.213006 22.8624 0.613006 23.3499 0.863006 23.5749C0.963006 23.6499 1.26301 23.9624 1.70051 24.3624C2.82551 25.4124 4.70051 27.1499 5.05051 27.4999C5.38801 27.8374 5.76301 27.9749 6.08801 27.9749C6.41301 27.9749 6.72551 27.8374 6.95051 27.6499L7.12551 27.4999C7.55051 27.1374 8.25051 26.5374 8.73801 26.2124C9.20051 25.8999 9.28801 25.5624 9.31301 25.3374C9.32551 25.1124 9.27551 24.7874 8.88801 24.4374C8.71301 24.2249 7.38801 23.0624 6.20051 22.0124ZM8.32551 25.5874C7.82551 25.9249 7.10051 26.5499 6.66301 26.9249L6.48801 27.0749C6.22551 27.2999 5.91301 27.2624 5.61301 26.9749C5.25051 26.6249 3.37551 24.8874 2.25051 23.8249C1.82551 23.4249 1.50051 23.1374 1.42551 23.0624C1.16301 22.8124 1.03801 22.5624 1.03801 22.4499C1.03801 22.4374 1.03801 22.3874 1.11301 22.3374C1.50051 22.0749 2.77551 21.0749 3.05051 20.8624C3.11301 20.8249 3.22551 20.7499 3.38801 20.7499C3.50051 20.7499 3.63801 20.7874 3.78801 20.9249C3.97551 21.0999 4.80051 21.8249 5.70051 22.6249C6.86301 23.6624 8.18801 24.8249 8.41301 25.0374C8.52551 25.1374 8.58801 25.2499 8.58801 25.3249C8.57551 25.3749 8.48801 25.4749 8.32551 25.5874Z" fill="#1985D2"/>
<path d="M29.6762 17.1499C29.0262 16.1749 27.5762 16.4374 26.7262 16.9374C26.4012 17.1249 25.8887 17.5124 25.2887 17.9749C24.2012 18.7999 22.5512 20.0249 21.9387 20.0999C21.1512 20.1999 18.9887 20.0999 16.1762 19.8374C15.3012 19.7624 15.0887 19.5749 15.0262 19.5249C15.0387 19.4624 15.1637 19.3749 15.2137 19.3499C15.4012 19.3124 16.7512 19.2124 17.9137 19.1374C19.2387 19.0374 20.5887 18.9499 21.3012 18.8749C22.1637 18.7749 22.5262 18.2624 22.5137 17.7874C22.5012 17.4749 22.3387 17.1749 22.0012 16.9499C24.5137 16.7749 26.6137 16.2999 26.7137 15.3999C26.9387 13.1999 23.0262 9.0999 22.5637 10.1374L21.0762 13.5624L20.5637 12.0499C20.5637 12.0499 20.6012 11.7624 20.8512 11.2499C21.1012 10.7374 21.1387 10.4874 20.6637 10.1749C20.1887 9.8499 19.5387 10.0624 19.3387 10.5749C19.1387 11.0874 19.7012 11.3749 19.7012 11.6874C19.7012 12.0124 19.3012 13.4874 19.3012 13.4874C19.3012 13.4874 19.3387 13.8874 18.8262 12.7749C18.2887 11.6499 17.7137 9.9999 17.7137 9.9999C14.8637 11.0124 13.4262 12.9999 13.4262 16.0124C13.4262 16.1124 13.5012 16.1874 13.6387 16.2624C13.3012 16.2499 12.9637 16.2499 12.6387 16.2499C12.2012 13.0374 13.9637 11.2499 16.2762 9.5124L16.0512 6.4499C16.0387 6.1124 15.7637 5.8374 15.4387 5.8374H10.4387C10.1012 5.8374 9.80117 6.1249 9.80117 6.4499V16.3874C7.56367 16.9624 4.88867 19.3874 4.75117 19.4999L4.57617 19.6499L4.78867 20.4499L9.76367 24.8749L10.6387 24.7999L10.7137 24.7624C10.7262 24.7624 11.8387 24.1124 12.7387 23.9374C13.1387 23.8624 14.5512 23.9374 15.9387 24.0124C17.7762 24.1124 19.8637 24.2249 20.9137 24.0749C22.2012 23.8874 24.8387 22.1374 28.7387 18.8874L28.8012 18.8499C29.1512 18.5624 30.0137 17.6624 29.6762 17.1499ZM11.4887 7.8124H14.4762V8.4249H11.4887V7.8124ZM11.4887 8.8749H14.4762V9.4874H11.4887V8.8749ZM28.3262 18.2624L28.2637 18.2999C23.2887 22.4499 21.4637 23.2124 20.8137 23.3124C19.8387 23.4499 17.7887 23.3499 15.9887 23.2499C14.1887 23.1499 13.0637 23.0999 12.5762 23.1874C11.7012 23.3749 10.6887 23.8999 10.3887 24.0624L10.0012 24.0999L5.45117 20.0374L5.41367 19.8999C6.10117 19.3124 8.72617 17.1249 10.5262 17.0124C12.1887 16.8999 16.4262 17.1249 18.9262 17.2624C19.7887 17.2999 20.4762 17.3374 20.8387 17.3624C21.4137 17.3749 21.6762 17.6249 21.7012 17.7874C21.7012 17.8999 21.5262 18.0499 21.1637 18.0999C20.4762 18.1749 19.0637 18.2749 17.8137 18.3624C15.9387 18.4999 15.1512 18.5499 14.9637 18.6124C14.6387 18.7124 14.1762 19.1124 14.2137 19.5874C14.2887 20.4124 15.6137 20.5499 16.0512 20.5874C17.4262 20.7249 20.7762 21.0124 21.9887 20.8499C22.7387 20.7499 24.0512 19.7999 25.7012 18.5749C26.2762 18.1374 26.7887 17.7749 27.0762 17.5749C27.5387 17.2874 28.5137 17.0374 28.9137 17.4624C28.8887 17.6499 28.6637 17.9749 28.3262 18.2624Z" fill="#1985D2"/>
</svg>
