<svg width="28" height="28" viewBox="0 0 28 28" fill="none" xmlns="http://www.w3.org/2000/svg">
<path d="M13.5315 21.7159C13.5711 21.848 13.4682 21.9796 13.3307 21.9682C11.3835 21.807 9.55887 20.9372 8.2062 19.5182C6.78842 18.0309 5.99809 16.0546 5.99935 13.9998C5.99935 9.5865 9.58602 5.99984 13.9993 5.99984C18.197 5.99984 21.6298 9.22442 21.9678 13.3309C21.9791 13.4683 21.8476 13.5716 21.7155 13.532L19.2967 12.8064C19.2282 12.7858 19.1762 12.7302 19.1583 12.661C18.9304 11.7802 18.4806 10.9717 17.8512 10.313C17.1951 9.62645 16.3675 9.12758 15.4541 8.86795C14.5406 8.60832 13.5744 8.59736 12.6553 8.8362C11.7362 9.07505 10.8975 9.55502 10.226 10.2265C9.55453 10.898 9.07456 11.7367 8.83572 12.6558C8.59688 13.5749 8.60783 14.5411 8.86746 15.4546C9.12709 16.368 9.62596 17.1956 10.3125 17.8517C10.9712 18.4811 11.7797 18.9308 12.6605 19.1588C12.7297 19.1767 12.7853 19.2287 12.8059 19.2972L13.5315 21.7159ZM27.3327 13.9998C27.3327 14.3193 27.3242 14.6388 27.3004 14.9583C27.291 15.0837 27.1675 15.1663 27.0471 15.1303L24.8107 14.4605C24.719 14.433 24.6598 14.3443 24.6631 14.2486C24.666 14.1647 24.666 14.0799 24.666 13.9998C24.666 8.1065 19.8927 3.33317 13.9993 3.33317C8.10602 3.33317 3.33268 8.1065 3.33268 13.9998C3.33268 19.8932 8.10602 24.6665 13.9993 24.6665C14.0794 24.6665 14.1642 24.6665 14.2481 24.6636C14.3438 24.6603 14.4325 24.7194 14.46 24.8112L15.1298 27.0476C15.1659 27.168 15.0832 27.2915 14.9578 27.3009C14.6383 27.3247 14.3188 27.3332 13.9993 27.3332C6.63935 27.3332 0.666016 21.3598 0.666016 13.9998C0.666016 6.63984 6.63935 0.666504 13.9993 0.666504C21.3594 0.666504 27.3327 6.63984 27.3327 13.9998ZM22.5357 19.9084C22.4303 19.8035 22.4722 19.6242 22.6133 19.577L25.3327 18.6665C25.946 18.4665 25.9327 17.5865 25.3193 17.3998L15.186 14.3598C14.6793 14.2132 14.1994 14.6798 14.3594 15.1865L17.3993 25.3198C17.586 25.9465 18.466 25.9598 18.666 25.3332L19.5768 22.6129C19.6239 22.472 19.8028 22.4299 19.9078 22.535L24.8927 27.5198C25.1593 27.7865 25.5727 27.7865 25.8393 27.5198L27.5327 25.8265C27.7993 25.5598 27.7993 25.1465 27.5327 24.8798L22.5357 19.9084Z" fill="#1985D2"/>
</svg>
