<svg width="32" height="22" viewBox="0 0 32 22" fill="none" xmlns="http://www.w3.org/2000/svg">
<path d="M22.1274 10.3136C24.6514 10.3136 26.8229 8.05992 26.8229 5.12507C26.8229 2.22564 24.64 0.0776367 22.1274 0.0776367C19.6154 0.0776367 17.432 2.27249 17.432 5.14849C17.432 8.05992 19.6034 10.3136 22.1274 10.3136ZM8.616 10.5839C10.7994 10.5839 12.7017 8.61135 12.7017 6.06392C12.7017 3.54049 10.7874 1.67364 8.616 1.67364C6.43314 1.67364 4.50743 3.58735 4.51943 6.08792C4.51943 8.61135 6.42114 10.5839 8.61657 10.5839M2.06629 21.1839H10.9874C9.76686 19.4113 11.2577 15.8428 13.7817 13.8942C12.4789 13.0256 10.7994 12.3799 8.60457 12.3799C3.31029 12.3794 0 16.2879 0 19.5399C0 20.5971 0.586857 21.1839 2.06629 21.1839ZM14.744 21.1839H29.4994C31.3423 21.1839 32 20.6554 32 19.6222C32 16.5936 28.208 12.4148 22.116 12.4148C16.0354 12.4148 12.2434 16.5936 12.2434 19.6228C12.2434 20.6554 12.9006 21.1839 14.744 21.1839Z" fill="#1985D2"/>
</svg>
